# xmcd CD database file
# Copyright (C) 1993-1998 Ti Kan
#
# Track frame offsets:
#  150
#  17010
#  35065
#  51100
#  67947
#  82854
#  98865
#  115597
#  133405
#  154065
#  170262
#  196485
#  214202
#  243307
#  275547
#  291747
#
# Disc length: 4333 seconds
#
# Revision: 1
# Processed by: cddbd v1.4b41PL1 Copyright (c) Steve Scherf et al.
# Submitted via: CDWizzard Release:4.35
#
DISCID=e810eb10
DTITLE=Sunland - Eruption
DYEAR=1900
DGENRE=
TTITLE0=Blood Sweat and Tears
TTITLE1=Good life
TTITLE2=Juliet
TTITLE3=Shine
TTITLE4=We are only human
TTITLE5=September
TTITLE6=C'mon and Dance
TTITLE7=Runaway
TTITLE8=She will always remeber
TTITLE9=Reach
TTITLE10=Time after Time
TTITLE11=It's all good Jack
TTITLE12=Pahupahu
TTITLE13=Blood Sweet and Tears (extended)
TTITLE14=We are only Human (extended)
TTITLE15=Sit down and watch
EXTD=
EXTT0=Sunland
EXTT1=
EXTT2=
EXTT3=
EXTT4=
EXTT5=
EXTT6=
EXTT7=
EXTT8=
EXTT9=
EXTT10=
EXTT11=
EXTT12=
EXTT13=
EXTT14=
EXTT15=
PLAYORDER=
